<svg xmlns="http://www.w3.org/2000/svg" viewBox="0 0 160 42.54"><defs><style>.cls-1{fill:#00909f;}</style></defs><g id="レイヤー_2" data-name="レイヤー 2"><g id="レイヤー_1-2" data-name="レイヤー 1"><polygon class="cls-1" points="36.7 0.62 0 0.62 0 9.03 13.65 9.03 13.65 41.85 22.72 41.85 22.72 9.03 36.7 9.03 36.7 0.62"/><path class="cls-1" d="M56.7,0A21.27,21.27,0,1,0,78,21.27,21.27,21.27,0,0,0,56.7,0Zm0,33a11.7,11.7,0,1,1,11.7-11.7A11.7,11.7,0,0,1,56.7,33Z"/><path class="cls-1" d="M138.73,0A21.27,21.27,0,1,0,160,21.27,21.27,21.27,0,0,0,138.73,0Zm0,33a11.7,11.7,0,1,1,11.71-11.7A11.7,11.7,0,0,1,138.73,33Z"/><path class="cls-1" d="M100,16.63H94.19a3.8,3.8,0,1,1,0-7.59h17.7V.58H93.18a12.33,12.33,0,0,0,0,24.66H100c3.09,0,4.68,1.57,4.68,3.8,0,2.45-1.16,4.32-4.61,4.32H81.67v8.49h18.42c10.51,0,14.32-6,14.32-13.1C114.41,24.43,111.32,16.63,100,16.63Z"/></g></g></svg>